<?xml version="1.0" encoding="UTF-8" standalone="no" ?>
<!DOCTYPE svg PUBLIC "-//W3C//DTD SVG 1.1//EN" "http://www.w3.org/Graphics/SVG/1.1/DTD/svg11.dtd">
<svg xmlns="http://www.w3.org/2000/svg" xmlns:xlink="http://www.w3.org/1999/xlink" version="1.1" width="492.15989074707034" height="363.452" xml:space="preserve">
<desc>Created with Fabric.js 1.6.0-rc.1</desc>
<defs></defs>
  <g transform="translate(11.13 295.59) scale(2.25 2.25)">
   <text font-family="Dooodleista" font-size="40" font-weight="normal" style="stroke: none; stroke-width: 1; stroke-dasharray: none; stroke-linecap: butt; stroke-linejoin: miter; stroke-miterlimit: 10; fill: #006699; fill-rule: nonzero; opacity: 1;" ><tspan x="0" y="8.98" fill="#006699"></tspan></text>
 </g>
<g style="stroke: none; stroke-width: 1; stroke-dasharray: none; stroke-linecap: butt; stroke-linejoin: miter; stroke-miterlimit: 10; fill: none; fill-rule: nonzero; opacity: 1;" transform="translate(78.60000000000002 42.48000000000002) scale(0.26 0.26)" >
  <path d="M 449.613 19.226 L 434.68 7.493 l -77.867 -7.467 c -30.933 -1.067 -42.667 30.933 -42.667 30.933 c -18.133 23.467 -33.067 48 -40.533 62.933 c -4.267 7.467 -6.4 16 -4.267 24.533 c 4.267 26.667 9.6 52.267 18.133 76.8 c 3.2 10.667 16 16 26.667 10.667 c 4.267 -2.133 7.467 -5.333 7.467 -5.333 l 52.267 -71.467 c 0 0 27.733 -50.133 28.8 -51.2 c 0 0 35.2 -24.533 50.133 -43.733 V 19.226 H 449.613 z" style="stroke: none; stroke-width: 1; stroke-dasharray: none; stroke-linecap: butt; stroke-linejoin: miter; stroke-miterlimit: 10; fill: #FFD15C; fill-rule: nonzero; opacity: 1;" transform=" matrix(1 0 0 1 0 0) " stroke-linecap="round" />
  <path d="M 309.88 156.826 c 0 0 9.6 -26.667 0 -41.6 c 0 0 -18.133 -10.667 -30.933 -12.8 c 0 0 16 0 30.933 8.533 c 0 0 20.267 -12.8 11.733 -34.133 L 309.88 61.893 l -4.267 -2.133 c 0 0 4.267 1.067 4.267 2.133 l -3.2 -4.267 c 0 0 9.6 9.6 20.267 24.533 c 0 0 21.333 23.467 35.2 -2.133 l -6.4 -13.867 c 0 0 -7.467 -8.533 -9.6 -11.733 c 0 0 5.333 4.267 6.4 5.333 l -4.267 -10.667 l -8.533 -11.733 l 6.4 5.333 c 0 0 6.4 11.733 8.533 16 c 1.067 4.267 8.533 19.2 10.667 23.467 c 0 0 8.533 10.667 13.867 3.2 c 0 0 0 -6.4 2.133 -9.6 c 0 0 -1.067 -11.733 -2.133 -14.933 l 2.133 6.4 l -1.067 -13.867 l 2.133 11.733 l 3.2 -3.2 l -3.2 16 c 0 0 -2.133 7.467 -2.133 8.533 c 0 0 -18.133 24.533 -25.6 28.8 l -33.067 20.267 c 0 0 0 17.067 -4.267 26.667 L 309.88 156.826 z" style="stroke: none; stroke-width: 1; stroke-dasharray: none; stroke-linecap: butt; stroke-linejoin: miter; stroke-miterlimit: 10; fill: #F7B64C; fill-rule: nonzero; opacity: 1;" transform=" matrix(1 0 0 1 0 0) " stroke-linecap="round" />
  <path d="M 239.48 122.693 c -46.933 12.8 -74.667 61.867 -60.8 108.8 c 12.8 46.933 61.867 74.667 108.8 60.8 c 46.933 -12.8 74.667 -61.867 60.8 -108.8 C 335.48 136.559 286.413 108.826 239.48 122.693 z" style="stroke: none; stroke-width: 1; stroke-dasharray: none; stroke-linecap: butt; stroke-linejoin: miter; stroke-miterlimit: 10; fill: #CED6E0; fill-rule: nonzero; opacity: 1;" transform=" matrix(1 0 0 1 0 0) " stroke-linecap="round" />
  <path d="M 278.946 265.626 c -32 8.533 -65.067 -9.6 -74.667 -41.6 c -8.533 -32 9.6 -65.067 41.6 -74.667 c 32 -8.533 65.067 9.6 74.667 41.6 C 330.146 222.959 310.946 256.026 278.946 265.626 z" style="stroke: none; stroke-width: 1; stroke-dasharray: none; stroke-linecap: butt; stroke-linejoin: miter; stroke-miterlimit: 10; fill: #ADB3BA; fill-rule: nonzero; opacity: 1;" transform=" matrix(1 0 0 1 0 0) " stroke-linecap="round" />
  <path d="M 258.68 243.226 v -6.4 c -7.467 -1.067 -13.867 -5.333 -20.267 -10.667 l 8.533 -9.6 c 4.267 4.267 8.533 6.4 11.733 7.467 v -12.8 c -6.4 -2.133 -10.667 -4.267 -12.8 -6.4 c -3.2 -3.2 -4.267 -6.4 -4.267 -11.733 s 2.133 -8.533 5.333 -11.733 c 3.2 -3.2 7.467 -5.333 12.8 -5.333 v -4.267 h 9.6 v 4.267 c 5.333 1.067 11.733 3.2 17.067 7.467 l -7.467 9.6 c -3.2 -3.2 -6.4 -4.267 -9.6 -5.333 v 12.8 c 6.4 2.133 10.667 4.267 13.867 7.467 c 3.2 3.2 4.267 6.4 4.267 11.733 s -2.133 8.533 -5.333 11.733 c -3.2 3.2 -7.467 5.333 -13.867 5.333 v 6.4 L 258.68 243.226 z M 259.746 187.759 c -2.133 1.067 -4.267 2.133 -4.267 4.267 c 0 2.133 1.067 4.267 3.2 5.333 L 259.746 187.759 z M 272.546 219.759 c 0 -1.067 0 -2.133 -1.067 -3.2 s -2.133 -2.133 -3.2 -2.133 v 10.667 C 271.48 224.026 272.546 222.959 272.546 219.759 z" style="stroke: none; stroke-width: 1; stroke-dasharray: none; stroke-linecap: butt; stroke-linejoin: miter; stroke-miterlimit: 10; fill: #CED6E0; fill-rule: nonzero; opacity: 1;" transform=" matrix(1 0 0 1 0 0) " stroke-linecap="round" />
  <path d="M 449.613 89.626 l -54.4 -69.333 l -12.8 59.733 c -9.6 24.533 -43.733 43.733 -43.733 43.733 s -20.267 6.4 -43.733 29.867 c -23.467 23.467 -12.8 39.467 -12.8 39.467 c 8.533 14.933 26.667 12.8 26.667 12.8 c 11.733 -1.067 51.2 -34.133 51.2 -34.133 c 13.867 -17.067 50.133 -30.933 50.133 -30.933 c 10.667 5.333 25.6 4.267 39.467 2.133 V 89.626 z" style="stroke: none; stroke-width: 1; stroke-dasharray: none; stroke-linecap: butt; stroke-linejoin: miter; stroke-miterlimit: 10; fill: #FFD15C; fill-rule: nonzero; opacity: 1;" transform=" matrix(1 0 0 1 0 0) " stroke-linecap="round" />
  <polygon points="449.61,125.89 419.75,87.49 449.61,122.69 449.61,19.23 433.61,7.49 448.55,22.43 428.28,16.03 400.55,19.23 422.95,120.56 449.61,132.29 " style="stroke: none; stroke-width: 1; stroke-dasharray: none; stroke-linecap: butt; stroke-linejoin: miter; stroke-miterlimit: 10; fill: #FFD15C; fill-rule: nonzero; opacity: 1;" transform="  matrix(1 0 0 1 0 0) "/>
  <path d="M 319.48 188.826 c 0 0 3.2 3.2 -3.2 8.533 c -6.4 5.333 -17.067 7.467 -17.067 7.467 s -12.8 1.067 -19.2 -13.867 c -5.333 -13.867 5.333 -22.4 5.333 -22.4 l 9.6 -6.4 c 0 0 6.4 -3.2 7.467 2.133 C 303.48 169.626 312.013 185.626 319.48 188.826 z" style="stroke: none; stroke-width: 1; stroke-dasharray: none; stroke-linecap: butt; stroke-linejoin: miter; stroke-miterlimit: 10; fill: #FFFFFF; fill-rule: nonzero; opacity: 1;" transform=" matrix(1 0 0 1 0 0) " stroke-linecap="round" />
  <rect x="91.21" y="265.63" rx="0" ry="0" width="292.27" height="246.4" style="stroke: none; stroke-width: 1; stroke-dasharray: none; stroke-linecap: butt; stroke-linejoin: miter; stroke-miterlimit: 10; fill: #F05540; fill-rule: nonzero; opacity: 1;" transform=" matrix(1 0 0 1 0 0) "/>
  <polygon points="414.41,345.63 382.41,265.63 91.21,265.63 59.21,345.63 " style="stroke: none; stroke-width: 1; stroke-dasharray: none; stroke-linecap: butt; stroke-linejoin: miter; stroke-miterlimit: 10; fill: #F3705A; fill-rule: nonzero; opacity: 1;" transform="  matrix(1 0 0 1 0 0) "/>
</g>
  <g transform="translate(187.1 69.21)">
   <text font-family="ADAMCG PRO" font-size="40" font-weight="normal" style="stroke: none; stroke-width: 1; stroke-dasharray: none; stroke-linecap: butt; stroke-linejoin: miter; stroke-miterlimit: 10; fill: #e324e3; fill-rule: nonzero; opacity: 1;" ><tspan x="0" y="8.98" fill="#e324e3"></tspan></text>
 </g>
  <g transform="translate(292.06 99.21)">
   <text font-family="ADAMCG PRO" font-size="40" font-weight="normal" style="stroke: none; stroke-width: 1; stroke-dasharray: none; stroke-linecap: butt; stroke-linejoin: miter; stroke-miterlimit: 10; fill: #5e35e6; fill-rule: nonzero; opacity: 1;" ><tspan x="-89.96" y="8.98" style="stroke: none; stroke-width: 0; stroke-dasharray: none; stroke-linecap: butt; stroke-linejoin: miter; stroke-miterlimit: 4; fill: #5e35e6; fill-rule: ; opacity: 1;">C</tspan><tspan x="-62.89" y="8.98" style="stroke: none; stroke-width: 0; stroke-dasharray: none; stroke-linecap: butt; stroke-linejoin: miter; stroke-miterlimit: 4; fill: #5e35e6; fill-rule: ; opacity: 1;">o</tspan><tspan x="-28.95" y="8.98" style="stroke: none; stroke-width: 0; stroke-dasharray: none; stroke-linecap: butt; stroke-linejoin: miter; stroke-miterlimit: 4; fill: #5e35e6; fill-rule: ; opacity: 1;">n</tspan><tspan x="0.57" y="8.98" style="stroke: none; stroke-width: 0; stroke-dasharray: none; stroke-linecap: butt; stroke-linejoin: miter; stroke-miterlimit: 4; fill: #5e35e6; fill-rule: ; opacity: 1;">f</tspan><tspan x="21.88" y="8.98" style="stroke: none; stroke-width: 0; stroke-dasharray: none; stroke-linecap: butt; stroke-linejoin: miter; stroke-miterlimit: 4; fill: #5e35e6; fill-rule: ; opacity: 1;">i</tspan><tspan x="32.66" y="8.98" style="stroke: none; stroke-width: 0; stroke-dasharray: none; stroke-linecap: butt; stroke-linejoin: miter; stroke-miterlimit: 4; fill: #5e35e6; fill-rule: ; opacity: 1;">a</tspan><tspan x="60.45" y="8.98" style="stroke: none; stroke-width: 0; stroke-dasharray: none; stroke-linecap: butt; stroke-linejoin: miter; stroke-miterlimit: 4; fill: #5e35e6; fill-rule: ; opacity: 1;">n</tspan></text>
 </g>
  <g transform="translate(342.38 149.21)">
   <text font-family="Cloister Black" font-size="40" font-weight="normal" style="stroke: none; stroke-width: 1; stroke-dasharray: none; stroke-linecap: butt; stroke-linejoin: miter; stroke-miterlimit: 10; fill: #ed1f71; fill-rule: nonzero; opacity: 1;" ><tspan x="-140.28" y="8.98" style="stroke: none; stroke-width: 0; stroke-dasharray: none; stroke-linecap: butt; stroke-linejoin: miter; stroke-miterlimit: 4; fill: #ed1f71; fill-rule: ; opacity: 1;">F</tspan><tspan x="-112.92" y="8.98" style="stroke: none; stroke-width: 0; stroke-dasharray: none; stroke-linecap: butt; stroke-linejoin: miter; stroke-miterlimit: 4; fill: #ed1f71; fill-rule: ; opacity: 1;">i</tspan><tspan x="-103.36" y="8.98" style="stroke: none; stroke-width: 0; stroke-dasharray: none; stroke-linecap: butt; stroke-linejoin: miter; stroke-miterlimit: 4; fill: #ed1f71; fill-rule: ; opacity: 1;">n</tspan><tspan x="-85.2" y="8.98" style="stroke: none; stroke-width: 0; stroke-dasharray: none; stroke-linecap: butt; stroke-linejoin: miter; stroke-miterlimit: 4; fill: #ed1f71; fill-rule: ; opacity: 1;">a</tspan><tspan x="-68.88" y="8.98" style="stroke: none; stroke-width: 0; stroke-dasharray: none; stroke-linecap: butt; stroke-linejoin: miter; stroke-miterlimit: 4; fill: #ed1f71; fill-rule: ; opacity: 1;">n</tspan><tspan x="-50.72" y="8.98" style="stroke: none; stroke-width: 0; stroke-dasharray: none; stroke-linecap: butt; stroke-linejoin: miter; stroke-miterlimit: 4; fill: #ed1f71; fill-rule: ; opacity: 1;">c</tspan><tspan x="-37.56" y="8.98" style="stroke: none; stroke-width: 0; stroke-dasharray: none; stroke-linecap: butt; stroke-linejoin: miter; stroke-miterlimit: 4; fill: #ed1f71; fill-rule: ; opacity: 1;">i</tspan><tspan x="-28" y="8.98" style="stroke: none; stroke-width: 0; stroke-dasharray: none; stroke-linecap: butt; stroke-linejoin: miter; stroke-miterlimit: 4; fill: #ed1f71; fill-rule: ; opacity: 1;">a</tspan><tspan x="-11.68" y="8.98" style="stroke: none; stroke-width: 0; stroke-dasharray: none; stroke-linecap: butt; stroke-linejoin: miter; stroke-miterlimit: 4; fill: #ed1f71; fill-rule: ; opacity: 1;">l</tspan><tspan x="-0.48" y="8.98" style="stroke: none; stroke-width: 0; stroke-dasharray: none; stroke-linecap: butt; stroke-linejoin: miter; stroke-miterlimit: 4; fill: #ed1f71; fill-rule: ; opacity: 1;"> </tspan><tspan x="9.52" y="8.98" style="stroke: none; stroke-width: 0; stroke-dasharray: none; stroke-linecap: butt; stroke-linejoin: miter; stroke-miterlimit: 4; fill: #ed1f71; fill-rule: ; opacity: 1;">S</tspan><tspan x="41.4" y="8.98" style="stroke: none; stroke-width: 0; stroke-dasharray: none; stroke-linecap: butt; stroke-linejoin: miter; stroke-miterlimit: 4; fill: #ed1f71; fill-rule: ; opacity: 1;">e</tspan><tspan x="55.24" y="8.98" style="stroke: none; stroke-width: 0; stroke-dasharray: none; stroke-linecap: butt; stroke-linejoin: miter; stroke-miterlimit: 4; fill: #ed1f71; fill-rule: ; opacity: 1;">r</tspan><tspan x="69.08" y="8.98" style="stroke: none; stroke-width: 0; stroke-dasharray: none; stroke-linecap: butt; stroke-linejoin: miter; stroke-miterlimit: 4; fill: #ed1f71; fill-rule: ; opacity: 1;">v</tspan><tspan x="86.4" y="8.98" style="stroke: none; stroke-width: 0; stroke-dasharray: none; stroke-linecap: butt; stroke-linejoin: miter; stroke-miterlimit: 4; fill: #ed1f71; fill-rule: ; opacity: 1;">i</tspan><tspan x="95.96" y="8.98" style="stroke: none; stroke-width: 0; stroke-dasharray: none; stroke-linecap: butt; stroke-linejoin: miter; stroke-miterlimit: 4; fill: #ed1f71; fill-rule: ; opacity: 1;">c</tspan><tspan x="109.12" y="8.98" style="stroke: none; stroke-width: 0; stroke-dasharray: none; stroke-linecap: butt; stroke-linejoin: miter; stroke-miterlimit: 4; fill: #ed1f71; fill-rule: ; opacity: 1;">e</tspan><tspan x="122.96" y="8.98" style="stroke: none; stroke-width: 0; stroke-dasharray: none; stroke-linecap: butt; stroke-linejoin: miter; stroke-miterlimit: 4; fill: #ed1f71; fill-rule: ; opacity: 1;">s</tspan></text>
 </g>
  <g transform="translate(410.07 86.41) scale(2.33 2.86)">
   <text font-family="Freebooter Script" font-size="40" font-weight="normal" style="stroke: none; stroke-width: 1; stroke-dasharray: none; stroke-linecap: butt; stroke-linejoin: miter; stroke-miterlimit: 10; fill: #11f2cd; fill-rule: nonzero; opacity: 1;" ><tspan x="-10.22" y="8.98" style="stroke: none; stroke-width: 0; stroke-dasharray: none; stroke-linecap: butt; stroke-linejoin: miter; stroke-miterlimit: 4; fill: #11f2cd; fill-rule: ; opacity: 1;">c</tspan><tspan x="-0.14" y="8.98" style="stroke: none; stroke-width: 0; stroke-dasharray: none; stroke-linecap: butt; stroke-linejoin: miter; stroke-miterlimit: 4; fill: #11f2cd; fill-rule: ; opacity: 1;">e</tspan></text>
 </g>
</svg>